Coordinates
version=1
nRows=32
nColumns=22
inDegrees=yes

Units are S.I. units (second, meters, Newtons, ...)
If the header above contains a line with 'inDegrees', this indicates whether rotational values are in degrees (yes) or radians (no).

endheader
time	pelvis_tilt	pelvis_list	pelvis_rotation	pelvis_tx	pelvis_ty	pelvis_tz	hip_flexion_r	hip_adduction_r	hip_rotation_r	knee_angle_r	ankle_angle_r	subtalar_angle_r	hip_flexion_l	hip_adduction_l	hip_rotation_l	knee_angle_l	ankle_angle_l	subtalar_angle_l	lumbar_extension	lumbar_bending	lumbar_rotation
      0.01000000	      0.15906383	     -0.85733084	     11.74624696	      1.03831481	      0.93539969	     -0.02601540	      3.60403360	     -1.02632271	    -23.29964174	    -15.63700482	     11.62820393	      1.92998909	      9.13901532	     -1.57896885	      0.38254905	    -22.63252899	     10.90021109	     -1.58791300	     -8.55865705	      0.85161051	     -8.61685941
      0.02000000	      0.16860277	     -0.85695353	     11.74872595	      1.03806930	      0.93552621	     -0.02609877	      3.58090498	     -1.02788776	    -23.31594149	    -15.58883169	     11.63239130	      1.94549004	      9.19531237	     -1.58748053	      0.09878487	    -22.69917304	     10.84733431	     -1.61834643	     -8.60377767	      0.83174045	     -8.66013833
      0.03000000	      0.16552585	     -0.85685535	     11.73764932	      1.03780449	      0.93563672	     -0.02620310	      3.57402160	     -1.03282821	    -23.30655411	    -15.54009147	     11.62166095	      1.97642151	      9.25823263	     -1.59264133	     -0.22464425	    -22.75246504	     10.82584960	     -1.63976675	     -8.63526520	      0.80443261	     -8.69501177
      0.04000000	      0.15395891	     -0.86522996	     11.72526712	      1.03752203	      0.93572170	     -0.02633985	      3.57961509	     -1.03222943	    -23.29207737	    -15.49120740	     11.61100256	      2.01307802	      9.32576793	     -1.60040602	     -0.54555484	    -22.79401972	     10.81104291	     -1.66836427	     -8.65628851	      0.78284302	     -8.73262033
      0.05000000	      0.13474783	     -0.88483310	     11.71521180	      1.03723975	      0.93577144	     -0.02652047	      3.59731928	     -1.02372349	    -23.27624414	    -15.44626104	     11.60042157	      2.04788057	      9.39066160	     -1.61188003	     -0.83851271	    -22.81412128	     10.80926890	     -1.71307809	     -8.66336513	      0.77102801	     -8.77600594
      0.06000000	      0.11032145	     -0.91818582	     11.70596276	      1.03695723	      0.93577666	     -0.02673849	      3.62918084	     -1.00420708	    -23.25489731	    -15.41149238	     11.58926857	      2.07788729	      9.45008552	     -1.62901164	     -1.08518113	    -22.81591615	     10.82437221	     -1.78235764	     -8.66062926	      0.77312543	     -8.81658306
      0.07000000	      0.08001328	     -0.96574598	     11.69525328	      1.03668127	      0.93573178	     -0.02699443	      3.67482059	     -0.97306791	    -23.22588880	    -15.38417288	     11.57497631	      2.10056742	      9.50285475	     -1.65250926	     -1.27682687	    -22.79821641	     10.86689919	     -1.88844369	     -8.64615003	      0.78945539	     -8.85536423
      0.08000000	      0.04608064	     -1.02819363	     11.69030188	      1.03641650	      0.93563975	     -0.02729928	      3.73208181	     -0.92971208	    -23.19005437	    -15.36809066	     11.55728089	      2.10783419	      9.53580665	     -1.67861646	     -1.37711606	    -22.73899249	     10.94835640	     -2.04005191	     -8.61964329	      0.82113567	     -8.89253691
      0.09000000	      0.03589461	     -1.07893663	     11.69580342	      1.03616310	      0.93555501	     -0.02766560	      3.77372151	     -0.90405548	    -23.18528593	    -15.38238263	     11.55895947	      2.10546123	      9.51789362	     -1.68883042	     -1.41042187	    -22.64423790	     10.96759955	     -2.06212142	     -8.62395056	      0.84436362	     -8.94319300
      0.10000000	      0.01869825	     -1.14662116	     11.68248726	      1.03593351	      0.93541974	     -0.02804085	      3.82194057	     -0.85761836	    -23.14283865	    -15.38020395	     11.53934639	      2.08511090	      9.48670123	     -1.70842295	     -1.38043343	    -22.52235449	     11.09244873	     -2.16538015	     -8.61366920	      0.88162254	     -8.96078705
      0.11000000	      0.01300743	     -1.21096431	     11.67707651	      1.03572676	      0.93528052	     -0.02844791	      3.87276775	     -0.82175751	    -23.12355674	    -15.41819178	     11.53620769	      2.07573481	      9.44089515	     -1.73550047	     -1.38288462	    -22.39955850	     11.13170976	     -2.19775065	     -8.61314497	      0.91270436	     -9.00543953
      0.12000000	      0.00739536	     -1.27769532	     11.64610471	      1.03552544	      0.93512803	     -0.02885577	      3.92287634	     -0.78032109	    -23.05652979	    -15.44212368	     11.50724434	      2.04150198	      9.36523947	     -1.75135453	     -1.29209586	    -22.23786337	     11.27415402	     -2.29025648	     -8.61579007	      0.94182108	     -8.97954697
      0.13000000	      0.02872566	     -1.33405171	     11.60222880	      1.03538127	      0.93502038	     -0.02924524	      3.94427216	     -0.74278799	    -22.97174813	    -15.47497402	     11.47439279	      1.96419721	      9.25412835	     -1.77665502	     -1.27684930	    -22.07815686	     11.39709394	     -2.50545256	     -8.64466319	      0.95582748	     -8.97830073
      0.14000000	      0.02449706	     -1.39747423	     11.55313994	      1.03520200	      0.93487547	     -0.02966075	      4.01498432	     -0.71771292	    -22.92824732	    -15.54428192	     11.45477454	      1.94717003	      9.17758890	     -1.79673249	     -1.21481581	    -21.92788079	     11.45917230	     -2.54362099	     -8.64807908	      0.97461405	     -8.93753050
      0.15000000	      0.02114156	     -1.44553068	     11.47764449	      1.03506430	      0.93475643	     -0.03002992	      4.08216694	     -0.70479178	    -22.84400857	    -15.61306823	     11.41303964	      1.92117813	      9.08961239	     -1.80804401	     -1.18379945	    -21.77543761	     11.54247882	     -2.60427516	     -8.65085972	      0.96486433	     -8.88663846
      0.16000000	      0.01823165	     -1.48405796	     11.37850733	      1.03494277	      0.93466733	     -0.03036667	      4.14835198	     -0.70069014	    -22.74606077	    -15.68032125	     11.36502916	      1.89141059	      9.00457301	     -1.81653307	     -1.19579475	    -21.63735836	     11.60730363	     -2.68323683	     -8.65400295	      0.94008178	     -8.82119540
      0.17000000	      0.00868611	     -1.51116332	     11.26498393	      1.03483014	      0.93460047	     -0.03069169	      4.21489507	     -0.70889495	    -22.64007542	    -15.73638932	     11.31062215	      1.86281459	      8.93265545	     -1.81661778	     -1.24045610	    -21.51625218	     11.66033452	     -2.75965186	     -8.65228997	      0.89986283	     -8.74417017
      0.18000000	     -0.00689085	     -1.52967692	     11.13730731	      1.03475246	      0.93455424	     -0.03098873	      4.27829789	     -0.72357871	    -22.52864384	    -15.78033733	     11.25321527	      1.83805551	      8.87234731	     -1.81324072	     -1.31766366	    -21.41192731	     11.70210168	     -2.81751243	     -8.63758044	      0.84291427	     -8.66702499
      0.19000000	     -0.03014082	     -1.53963438	     10.99739367	      1.03468424	      0.93452665	     -0.03127580	      4.33997838	     -0.74714973	    -22.41217954	    -15.80588144	     11.18984175	      1.81863271	      8.82235449	     -1.80477243	     -1.42130788	    -21.31612500	     11.73850179	     -2.84422413	     -8.61323729	      0.77300625	     -8.58461365
      0.20000000	     -0.06094287	     -1.54136481	     10.84153928	      1.03461688	      0.93451799	     -0.03155171	      4.39984046	     -0.77722512	    -22.28247807	    -15.81254721	     11.12130628	      1.80487355	      8.77940139	     -1.79105006	     -1.55671045	    -21.22168796	     11.76746299	     -2.83808721	     -8.58282039	      0.69263863	     -8.49242691
      0.21000000	     -0.09251398	     -1.54516184	     10.66333905	      1.03458519	      0.93452618	     -0.03179308	      4.45547234	     -0.80147852	    -22.13023378	    -15.80996842	     11.06685172	      1.79925454	      8.73304129	     -1.78872508	     -1.72996716	    -21.12690775	     11.77263178	     -2.79206376	     -8.54046049	      0.61093664	     -8.39576453
      0.22000000	     -0.13241220	     -1.53938576	     10.48763727	      1.03454913	      0.93454545	     -0.03205381	      4.50270620	     -0.83695814	    -22.00522864	    -15.77733345	     10.97418713	      1.79961402	      8.68998119	     -1.77087991	     -1.88258058	    -21.02460819	     11.79962881	     -2.73307268	     -8.49086554	      0.51725094	     -8.29769710
      0.23000000	     -0.17283082	     -1.54123848	     10.28440883	      1.03452151	      0.93457641	     -0.03226972	      4.54705465	     -0.85845649	    -21.84672851	    -15.72997671	     10.89756195	      1.81320808	      8.64139493	     -1.76794924	     -2.07175576	    -20.91316167	     11.79851994	     -2.65758264	     -8.43848166	      0.43126173	     -8.18082728
      0.24000000	     -0.21274898	     -1.54989258	     10.07029305	      1.03450413	      0.93461566	     -0.03246532	      4.58771375	     -0.87049596	    -21.68783958	    -15.67343153	     10.81608435	      1.83574547	      8.58701787	     -1.77163873	     -2.25766117	    -20.79412116	     11.79863736	     -2.58170597	     -8.38450802	      0.35282780	     -8.06266569
      0.25000000	     -0.25114066	     -1.56592133	      9.84394839	      1.03445592	      0.93466355	     -0.03263703	      4.62907647	     -0.87294337	    -21.51875695	    -15.60987105	     10.73364064	      1.86656230	      8.53220962	     -1.78224538	     -2.44268828	    -20.67240449	     11.79647860	     -2.51825769	     -8.34053977	      0.28551450	     -7.93689807
      0.26000000	     -0.28789285	     -1.58816618	      9.60059071	      1.03442158	      0.93471431	     -0.03276933	      4.67167281	     -0.86618638	    -21.33565945	    -15.54787132	     10.64799620	      1.90459249	      8.47171616	     -1.79959901	     -2.63472903	    -20.54771075	     11.79621376	     -2.47323844	     -8.29655153	      0.22362978	     -7.80304723
      0.27000000	     -0.32427606	     -1.61338933	      9.34276394	      1.03437829	      0.93476370	     -0.03286332	      4.72056580	     -0.85483825	    -21.13580521	    -15.49305357	     10.55963243	      1.94882993	      8.40987221	     -1.82001276	     -2.83793982	    -20.42231887	     11.79654810	     -2.45098898	     -8.25692104	      0.16380303	     -7.66024845
      0.28000000	     -0.36366628	     -1.63784428	      9.07348654	      1.03432269	      0.93480708	     -0.03292076	      4.78173532	     -0.84458547	    -20.92311060	    -15.45083982	     10.47211338	      1.99918359	      8.34890762	     -1.84028328	     -3.06078936	    -20.29371518	     11.79515956	     -2.45294724	     -8.21983979	      0.10055422	     -7.51469021
      0.29000000	     -0.41000423	     -1.65722638	      8.80015526	      1.03425353	      0.93483817	     -0.03295417	      4.85869854	     -0.84273859	    -20.70872274	    -15.42524831	     10.38881436	      2.05180883	      8.29290709	     -1.85520935	     -3.30025809	    -20.16031020	     11.79035369	     -2.47704453	     -8.17822319	      0.02928597	     -7.37326015
      0.30000000	     -0.46789752	     -1.66731557	      8.51881599	      1.03416948	      0.93484799	     -0.03296134	      4.95768734	     -0.85340923	    -20.48670166	    -15.41687256	     10.30868682	      2.10457972	      8.24381216	     -1.86101667	     -3.56686275	    -20.01845210	     11.78014692	     -2.51687636	     -8.12715749	     -0.05573213	     -7.22895466
      0.31000000	     -0.53809119	     -1.66803771	      8.22849989	      1.03406720	      0.93483393	     -0.03293497	      5.08059842	     -0.87603866	    -20.25565126	    -15.42731400	     10.23713224	      2.15593468	      8.20481274	     -1.85952409	     -3.86275095	    -19.87155076	     11.76346133	     -2.56480087	     -8.06446808	     -0.15506842	     -7.08305859
      0.32000000	     -0.61902958	     -1.66240155	      7.93280331	      1.03395600	      0.93479671	     -0.03288449	      5.22299111	     -0.90713815	    -20.02151403	    -15.45233920	     10.17481933	      2.20132971	      8.17901213	     -1.85389782	     -4.17647895	    -19.72792800	     11.74418121	     -2.61106671	     -7.99105686	     -0.26352842	     -6.93852543
